<mxfile host="Electron" modified="2024-12-05T10:24:17.258Z" agent="Mozilla/5.0 (Windows NT 10.0; Win64; x64) AppleWebKit/537.36 (KHTML, like Gecko) draw.io/21.2.1 Chrome/112.0.5615.87 Electron/24.1.2 Safari/537.36" etag="m59SsWE0B8fk0MYWrR-S" version="21.2.1" type="device">
  <diagram name="Seite-1" id="UbLdo73zn5IPvyIpoTCn">
    <mxGraphModel dx="1126" dy="679" grid="1" gridSize="10" guides="1" tooltips="1" connect="1" arrows="1" fold="1" page="1" pageScale="1" pageWidth="827" pageHeight="1169" math="0" shadow="0">
      <root>
        <mxCell id="0" />
        <mxCell id="1" parent="0" />
        <mxCell id="YsYQmPR9tYL0SFQUgslk-2" value="Model mapping" style="whiteSpace=wrap;html=1;shape=mxgraph.basic.document;fillColor=#dae8fc;strokeColor=#6c8ebf;fontSize=16;" vertex="1" parent="1">
          <mxGeometry x="130" y="340" width="100" height="100" as="geometry" />
        </mxCell>
        <mxCell id="YsYQmPR9tYL0SFQUgslk-3" value="Context mapping" style="whiteSpace=wrap;html=1;shape=mxgraph.basic.document;fillColor=#dae8fc;strokeColor=#6c8ebf;fontSize=16;" vertex="1" parent="1">
          <mxGeometry x="270" y="160" width="100" height="100" as="geometry" />
        </mxCell>
        <mxCell id="YsYQmPR9tYL0SFQUgslk-4" value="Extension mapping" style="whiteSpace=wrap;html=1;shape=mxgraph.basic.document;fillColor=#dae8fc;strokeColor=#6c8ebf;fontSize=16;" vertex="1" parent="1">
          <mxGeometry x="420" y="340" width="100" height="100" as="geometry" />
        </mxCell>
        <mxCell id="YsYQmPR9tYL0SFQUgslk-5" value="" style="endArrow=classic;html=1;rounded=0;entryX=0.5;entryY=0;entryDx=0;entryDy=0;entryPerimeter=0;exitX=0.5;exitY=1;exitDx=0;exitDy=0;exitPerimeter=0;" edge="1" parent="1" source="YsYQmPR9tYL0SFQUgslk-3" target="YsYQmPR9tYL0SFQUgslk-4">
          <mxGeometry width="50" height="50" relative="1" as="geometry">
            <mxPoint x="330" y="270" as="sourcePoint" />
            <mxPoint x="380" y="220" as="targetPoint" />
          </mxGeometry>
        </mxCell>
        <mxCell id="YsYQmPR9tYL0SFQUgslk-7" value="Loads" style="edgeLabel;html=1;align=center;verticalAlign=middle;resizable=0;points=[];fontSize=15;" vertex="1" connectable="0" parent="YsYQmPR9tYL0SFQUgslk-5">
          <mxGeometry x="-0.2085" y="-2" relative="1" as="geometry">
            <mxPoint x="22" y="7" as="offset" />
          </mxGeometry>
        </mxCell>
        <mxCell id="YsYQmPR9tYL0SFQUgslk-6" value="" style="endArrow=classic;html=1;rounded=0;entryX=0.5;entryY=0;entryDx=0;entryDy=0;entryPerimeter=0;exitX=0.5;exitY=1;exitDx=0;exitDy=0;exitPerimeter=0;" edge="1" parent="1" source="YsYQmPR9tYL0SFQUgslk-3" target="YsYQmPR9tYL0SFQUgslk-2">
          <mxGeometry width="50" height="50" relative="1" as="geometry">
            <mxPoint x="340" y="280" as="sourcePoint" />
            <mxPoint x="480" y="350" as="targetPoint" />
          </mxGeometry>
        </mxCell>
        <mxCell id="YsYQmPR9tYL0SFQUgslk-9" value="Loads" style="edgeLabel;html=1;align=center;verticalAlign=middle;resizable=0;points=[];fontSize=15;" vertex="1" connectable="0" parent="YsYQmPR9tYL0SFQUgslk-6">
          <mxGeometry x="0.23" y="1" relative="1" as="geometry">
            <mxPoint x="6" y="-10" as="offset" />
          </mxGeometry>
        </mxCell>
        <mxCell id="YsYQmPR9tYL0SFQUgslk-10" value="" style="endArrow=classic;html=1;rounded=0;entryX=1;entryY=0.5;entryDx=0;entryDy=0;entryPerimeter=0;exitX=0;exitY=0.5;exitDx=0;exitDy=0;exitPerimeter=0;" edge="1" parent="1" source="YsYQmPR9tYL0SFQUgslk-4" target="YsYQmPR9tYL0SFQUgslk-2">
          <mxGeometry width="50" height="50" relative="1" as="geometry">
            <mxPoint x="420" y="400" as="sourcePoint" />
            <mxPoint x="470" y="350" as="targetPoint" />
          </mxGeometry>
        </mxCell>
        <mxCell id="YsYQmPR9tYL0SFQUgslk-11" value="Extends and overwrites" style="edgeLabel;html=1;align=center;verticalAlign=middle;resizable=0;points=[];fontSize=15;" vertex="1" connectable="0" parent="YsYQmPR9tYL0SFQUgslk-10">
          <mxGeometry x="-0.1176" relative="1" as="geometry">
            <mxPoint x="-6" as="offset" />
          </mxGeometry>
        </mxCell>
      </root>
    </mxGraphModel>
  </diagram>
</mxfile>
